<svg id="visual" viewBox="0 0 960 200" width="960" height="200" xmlns="http://www.w3.org/2000/svg" xmlns:xlink="http://www.w3.org/1999/xlink" version="1.1"><rect x="0" y="0" width="960" height="200" fill="#007BA7"></rect><path d="M0 58L22.8 62C45.7 66 91.3 74 137 76C182.7 78 228.3 74 274 69.7C319.7 65.3 365.3 60.7 411.2 59.5C457 58.3 503 60.7 548.8 60.3C594.7 60 640.3 57 686 60C731.7 63 777.3 72 823 72.2C868.7 72.3 914.3 63.7 937.2 59.3L960 55L960 0L937.2 0C914.3 0 868.7 0 823 0C777.3 0 731.7 0 686 0C640.3 0 594.7 0 548.8 0C503 0 457 0 411.2 0C365.3 0 319.7 0 274 0C228.3 0 182.7 0 137 0C91.3 0 45.7 0 22.8 0L0 0Z" fill="#007ba7"></path><path d="M0 67L22.8 67C45.7 67 91.3 67 137 63C182.7 59 228.3 51 274 50.8C319.7 50.7 365.3 58.3 411.2 62.3C457 66.3 503 66.7 548.8 63.2C594.7 59.7 640.3 52.3 686 50.8C731.7 49.3 777.3 53.7 823 56.5C868.7 59.3 914.3 60.7 937.2 61.3L960 62L960 0L937.2 0C914.3 0 868.7 0 823 0C777.3 0 731.7 0 686 0C640.3 0 594.7 0 548.8 0C503 0 457 0 411.2 0C365.3 0 319.7 0 274 0C228.3 0 182.7 0 137 0C91.3 0 45.7 0 22.8 0L0 0Z" fill="#397ca2"></path><path d="M0 49L22.8 49.3C45.7 49.7 91.3 50.3 137 47.2C182.7 44 228.3 37 274 33.8C319.7 30.7 365.3 31.3 411.2 32.5C457 33.7 503 35.3 548.8 35.7C594.7 36 640.3 35 686 34C731.7 33 777.3 32 823 32.2C868.7 32.3 914.3 33.7 937.2 34.3L960 35L960 0L937.2 0C914.3 0 868.7 0 823 0C777.3 0 731.7 0 686 0C640.3 0 594.7 0 548.8 0C503 0 457 0 411.2 0C365.3 0 319.7 0 274 0C228.3 0 182.7 0 137 0C91.3 0 45.7 0 22.8 0L0 0Z" fill="#517d9c"></path><path d="M0 20L22.8 21.2C45.7 22.3 91.3 24.7 137 25C182.7 25.3 228.3 23.7 274 22.3C319.7 21 365.3 20 411.2 20.2C457 20.3 503 21.7 548.8 24.7C594.7 27.7 640.3 32.3 686 33.7C731.7 35 777.3 33 823 32.2C868.7 31.3 914.3 31.7 937.2 31.8L960 32L960 0L937.2 0C914.3 0 868.7 0 823 0C777.3 0 731.7 0 686 0C640.3 0 594.7 0 548.8 0C503 0 457 0 411.2 0C365.3 0 319.7 0 274 0C228.3 0 182.7 0 137 0C91.3 0 45.7 0 22.8 0L0 0Z" fill="#627e96"></path><path d="M0 12L22.8 11.3C45.7 10.7 91.3 9.3 137 10.2C182.7 11 228.3 14 274 15.8C319.7 17.7 365.3 18.3 411.2 17.8C457 17.3 503 15.7 548.8 15.2C594.7 14.7 640.3 15.3 686 16.5C731.7 17.7 777.3 19.3 823 20.5C868.7 21.7 914.3 22.3 937.2 22.7L960 23L960 0L937.2 0C914.3 0 868.7 0 823 0C777.3 0 731.7 0 686 0C640.3 0 594.7 0 548.8 0C503 0 457 0 411.2 0C365.3 0 319.7 0 274 0C228.3 0 182.7 0 137 0C91.3 0 45.7 0 22.8 0L0 0Z" fill="#708090"></path></svg>