<svg id="visual" viewBox="0 0 960 300" width="960" height="300" xmlns="http://www.w3.org/2000/svg" xmlns:xlink="http://www.w3.org/1999/xlink" version="1.1"><rect x="0" y="0" width="960" height="300" fill="#001220"></rect><path d="M0 87L22.8 93C45.7 99 91.3 111 137 114.2C182.7 117.3 228.3 111.7 274 105.3C319.7 99 365.3 92 411.2 90.2C457 88.3 503 91.7 548.8 91C594.7 90.3 640.3 85.7 686 90.2C731.7 94.7 777.3 108.3 823 108.7C868.7 109 914.3 96 937.2 89.5L960 83L960 0L937.2 0C914.3 0 868.7 0 823 0C777.3 0 731.7 0 686 0C640.3 0 594.7 0 548.8 0C503 0 457 0 411.2 0C365.3 0 319.7 0 274 0C228.3 0 182.7 0 137 0C91.3 0 45.7 0 22.8 0L0 0Z" fill="#002868"></path><path d="M0 101L22.8 100.8C45.7 100.7 91.3 100.3 137 94.3C182.7 88.3 228.3 76.7 274 76.7C319.7 76.7 365.3 88.3 411.2 94.3C457 100.3 503 100.7 548.8 95.5C594.7 90.3 640.3 79.7 686 77.5C731.7 75.3 777.3 81.7 823 85.7C868.7 89.7 914.3 91.3 937.2 92.2L960 93L960 0L937.2 0C914.3 0 868.7 0 823 0C777.3 0 731.7 0 686 0C640.3 0 594.7 0 548.8 0C503 0 457 0 411.2 0C365.3 0 319.7 0 274 0C228.3 0 182.7 0 137 0C91.3 0 45.7 0 22.8 0L0 0Z" fill="#472a75"></path><path d="M0 74L22.8 74.5C45.7 75 91.3 76 137 71.2C182.7 66.3 228.3 55.7 274 50.8C319.7 46 365.3 47 411.2 48.8C457 50.7 503 53.3 548.8 53.8C594.7 54.3 640.3 52.7 686 51C731.7 49.3 777.3 47.7 823 48C868.7 48.3 914.3 50.7 937.2 51.8L960 53L960 0L937.2 0C914.3 0 868.7 0 823 0C777.3 0 731.7 0 686 0C640.3 0 594.7 0 548.8 0C503 0 457 0 411.2 0C365.3 0 319.7 0 274 0C228.3 0 182.7 0 137 0C91.3 0 45.7 0 22.8 0L0 0Z" fill="#772779"></path><path d="M0 30L22.8 32C45.7 34 91.3 38 137 38.7C182.7 39.3 228.3 36.7 274 34.3C319.7 32 365.3 30 411.2 30.2C457 30.3 503 32.7 548.8 37.5C594.7 42.3 640.3 49.7 686 51.7C731.7 53.7 777.3 50.3 823 48.8C868.7 47.3 914.3 47.7 937.2 47.8L960 48L960 0L937.2 0C914.3 0 868.7 0 823 0C777.3 0 731.7 0 686 0C640.3 0 594.7 0 548.8 0C503 0 457 0 411.2 0C365.3 0 319.7 0 274 0C228.3 0 182.7 0 137 0C91.3 0 45.7 0 22.8 0L0 0Z" fill="#a22174"></path><path d="M0 19L22.8 17.8C45.7 16.7 91.3 14.3 137 15.5C182.7 16.7 228.3 21.3 274 24.2C319.7 27 365.3 28 411.2 27.3C457 26.7 503 24.3 548.8 23.5C594.7 22.7 640.3 23.3 686 24.8C731.7 26.3 777.3 28.7 823 30.5C868.7 32.3 914.3 33.7 937.2 34.3L960 35L960 0L937.2 0C914.3 0 868.7 0 823 0C777.3 0 731.7 0 686 0C640.3 0 594.7 0 548.8 0C503 0 457 0 411.2 0C365.3 0 319.7 0 274 0C228.3 0 182.7 0 137 0C91.3 0 45.7 0 22.8 0L0 0Z" fill="#c62368"></path></svg>